<?xml version="1.0" encoding="UTF-8" standalone="no"?>
<svg
   width="456"
   height="456"
   viewBox="0 0 456 456"
   version="1.1"
   xml:space="preserve"
   style="clip-rule:evenodd;fill-rule:evenodd;stroke-linejoin:round;stroke-miterlimit:2"
   id="svg4"
   sodipodi:docname="postman_01_icon_fg.svg"
   inkscape:version="1.4.2 (2aeb623e1d, 2025-05-12)"
   xmlns:inkscape="http://www.inkscape.org/namespaces/inkscape"
   xmlns:sodipodi="http://sodipodi.sourceforge.net/DTD/sodipodi-0.dtd"
   xmlns="http://www.w3.org/2000/svg"
   xmlns:svg="http://www.w3.org/2000/svg"><defs
   id="defs4"><rect
     x="38.615193"
     y="158.43587"
     width="368.54795"
     height="237.36987"
     id="rect1" /></defs><sodipodi:namedview
   id="namedview4"
   pagecolor="#ffffff"
   bordercolor="#000000"
   borderopacity="0.25"
   inkscape:showpageshadow="2"
   inkscape:pageopacity="0.0"
   inkscape:pagecheckerboard="0"
   inkscape:deskcolor="#d1d1d1"
   inkscape:zoom="1.7609649"
   inkscape:cx="227.43213"
   inkscape:cy="226.29639"
   inkscape:window-width="1920"
   inkscape:window-height="1011"
   inkscape:window-x="0"
   inkscape:window-y="32"
   inkscape:window-maximized="1"
   inkscape:current-layer="layer1"><inkscape:page
     x="0"
     y="0"
     width="456"
     height="456"
     id="page2"
     margin="0"
     bleed="0" /></sodipodi:namedview>
    
    
    
    
<g
   inkscape:groupmode="layer"
   id="layer1"
   inkscape:label="Layer 1"><g
     id="text1"
     style="font-size:96px;font-family:'Comic Sans MS';-inkscape-font-specification:'Comic Sans MS';text-align:center;white-space:pre;fill:#1a1a1a"
     transform="translate(13.061021,-6.2465754)"
     aria-label="PmS Tools"><path
       d="m 146.69434,213.27697 q -1.3125,0 -5.71875,-0.60938 -0.375,7.07813 -0.375,24.79688 0,1.875 -1.21875,3.1875 -1.21875,1.26562 -3.04688,1.26562 -1.875,0 -3.09375,-1.26562 -1.21875,-1.3125 -1.21875,-3.1875 v -13.78125 q 0,-6.89063 0.84375,-19.40625 0.9375,-13.54688 1.03125,-19.40625 v -6.46875 q 0,-4.64063 0.5625,-6.75 1.07813,-4.125 4.59375,-3.5625 1.5,-0.46875 4.26563,-0.70313 2.76562,-0.23437 6.79687,-0.23437 8.57813,0 16.07813,5.85937 8.25,6.46875 8.25,15.5625 0,11.625 -8.8125,18.51563 -7.875,6.1875 -18.9375,6.1875 z m 2.34375,-37.21875 q -2.0625,0 -3.70313,0.0937 -1.59375,0.0937 -2.71875,0.28125 l -0.0937,8.625 -0.98437,18.65625 5.15625,0.60937 q 7.875,0 13.26562,-3.98437 5.90625,-4.35938 5.90625,-11.76563 0,-5.25 -5.625,-9.04687 -5.20312,-3.46875 -11.20312,-3.46875 z m 94.3125,68.625 q -3.84375,0 -4.5,-4.07813 -0.84375,-5.15625 -1.6875,-14.53125 l -1.59375,-14.53125 q -0.46875,-3.23437 -1.59375,-6.32812 -1.59375,-4.21875 -3.46875,-4.21875 -1.73438,0 -6.46875,2.95312 -4.5,2.71875 -5.90625,4.35938 -0.0469,4.40625 0.23437,8.8125 l 1.40625,12.51562 q 0.89063,7.40625 0.89063,12.23438 0,2.0625 -1.3125,3.375 -1.26563,1.35937 -3.28125,1.35937 -2.01563,0 -3.32813,-1.35937 -1.26562,-1.3125 -1.26562,-3.375 0,-5.67188 -1.17188,-16.73438 -1.125,-11.10937 -1.125,-16.78125 0,-4.96875 -1.40625,-7.73437 -3.28125,1.5 -6.65625,4.875 l -5.53125,6.1875 q -0.75,1.125 -2.39062,2.95312 0,2.8125 -0.51563,8.29688 -0.51562,5.48437 -0.51562,8.10937 0,1.40625 0.42187,3.9375 0.46875,2.53125 0.46875,3.65625 0,1.92188 -1.45312,3.23438 -1.40625,1.3125 -3.32813,1.3125 -5.29687,0 -5.29687,-12.04688 0,-2.8125 0.51562,-8.39062 0.51563,-5.57813 0.51563,-8.39063 0,-2.48437 -0.46875,-7.45312 -0.42188,-4.96875 -0.42188,-7.5 0,-10.64063 4.78125,-10.64063 1.82813,0 3.32813,1.59375 1.54687,1.59375 1.54687,3.46875 0,0.89063 -0.23437,2.76563 -0.23438,1.875 -0.23438,2.85937 l 0.0937,4.92188 q 2.4375,-5.01563 7.17188,-9.04688 4.73437,-4.07812 8.0625,-4.07812 7.35937,0 10.125,7.3125 2.57812,-3.42188 6.14062,-5.10938 3.5625,-1.73437 8.15625,-1.73437 7.82813,0 10.6875,8.4375 0.5625,1.6875 1.92188,13.17187 1.3125,8.0625 3.375,26.85938 0.14062,1.875 -1.26563,3.1875 -1.40625,1.3125 -3.42187,1.3125 z m 14.8125,-15.5625 q -0.0469,-1.96875 1.3125,-3.1875 1.40625,-1.26563 3.42187,-1.26563 2.29688,0 4.03125,2.625 2.39063,3.5625 4.26563,4.82813 3.98437,2.625 11.57812,2.625 7.26563,0 13.5,-3.14063 7.96875,-4.03125 7.96875,-11.20312 0,-5.90625 -6.70312,-9.32813 -5.67188,-2.95312 -14.01563,-3.1875 -7.40625,-0.28125 -12.60937,-3.23437 -6.65625,-3.79688 -6.65625,-10.875 0,-8.34375 9.46875,-15.23438 9.04687,-6.51562 18.70312,-6.51562 4.54688,0 10.26563,1.54687 7.59375,2.01563 7.59375,5.15625 0,4.125 -4.21875,4.125 -1.875,0 -6.5625,-0.98437 -4.6875,-1.03125 -7.26563,-0.98438 -7.3125,0.0937 -12.42187,3.60938 -5.25,3.60937 -5.25,8.76562 0,3.89063 6.9375,5.48438 2.57812,0.60937 9.98437,1.125 10.73438,0.79687 16.78125,6.75 5.53125,5.4375 5.53125,13.26562 0,11.15625 -10.3125,17.8125 -8.95312,5.76563 -20.76562,5.76563 -8.57813,0 -15.70313,-3.28125 -8.71875,-4.03125 -8.85937,-11.0625 z"
       id="path1" /><path
       d="m 167.1084,301.58947 q -3.46875,0 -10.6875,-0.5625 -7.03125,-0.51563 -10.6875,-0.46875 h -3.32813 q 0.14063,6.46875 1.26563,21 1.03125,13.54687 1.03125,21.04687 0,1.64063 0.32812,4.96875 0.32813,3.32813 0.32813,5.01563 0,3.1875 -1.03125,5.48437 -1.3125,3.09375 -4.07813,3.09375 -1.875,0 -3.375,-1.3125 -1.5,-1.3125 -1.5,-3.375 0,-0.70312 0.23438,-2.10937 0.23437,-1.40625 0.23437,-2.10938 0,-2.29687 -0.32812,-6.89062 -0.28125,-4.59375 -0.28125,-6.9375 0,-6.70313 -1.07813,-18.84375 -1.125,-13.125 -1.26562,-18.84375 l -4.26563,0.0469 q -10.26562,0 -16.125,-1.5 -3.79687,-0.98437 -3.79687,-4.64062 0,-1.92188 1.21875,-3.375 1.40625,-1.64063 3.60937,-1.5 1.64063,0.0937 7.5,0.84375 4.6875,0.5625 7.59375,0.5625 2.8125,0 8.53125,-0.0937 5.71875,-0.14063 8.53125,-0.14063 3.60938,0 10.6875,0.51563 7.125,0.51562 10.73438,0.51562 2.01562,0 3.375,1.40625 1.35937,1.35938 1.35937,3.42188 0,2.01562 -1.35937,3.42187 -1.35938,1.35938 -3.375,1.35938 z m 25.5,61.96875 q -7.875,0 -13.54688,-5.8125 -6.32812,-6.46875 -6.65625,-17.39063 -0.28125,-10.59375 5.34375,-18.65625 6.5625,-9.51562 18.28125,-9.51562 9.375,0 14.20313,8.57812 3.84375,6.9375 3.70312,16.6875 -0.14062,10.40625 -5.4375,17.76563 -6,8.34375 -15.89062,8.34375 z m 2.8125,-41.85938 q -6.89063,-0.0469 -10.73438,6.5625 -3.04687,5.29688 -3.04687,12.09375 0,6.79688 3.70312,10.59375 3.09375,3.14063 7.26563,3.14063 4.875,0 8.39062,-3.5625 3.98438,-3.9375 4.21875,-10.64063 0.65625,-18.14062 -9.79687,-18.1875 z m 47.67187,41.85938 q -7.875,0 -13.54687,-5.8125 -6.32813,-6.46875 -6.65625,-17.39063 -0.28125,-10.59375 5.34375,-18.65625 6.5625,-9.51562 18.28125,-9.51562 9.375,0 14.20312,8.57812 3.84375,6.9375 3.70313,16.6875 -0.14063,10.40625 -5.4375,17.76563 -6,8.34375 -15.89063,8.34375 z m 2.8125,-41.85938 q -6.89062,-0.0469 -10.73437,6.5625 -3.04688,5.29688 -3.04688,12.09375 0,6.79688 3.70313,10.59375 3.09375,3.14063 7.26562,3.14063 4.875,0 8.39063,-3.5625 3.98437,-3.9375 4.21875,-10.64063 0.65625,-18.14062 -9.79688,-18.1875 z m 42,2.25 -0.70312,23.29688 q 0,3.70312 -0.375,10.875 -0.46875,4.6875 -4.59375,4.6875 -4.59375,0 -4.59375,-4.78125 0,-5.67188 0.51562,-17.01563 0.51563,-11.39062 0.51563,-17.0625 0,-7.40625 0.23437,-16.92187 0.23438,-9.5625 0.23438,-16.96875 0,-4.6875 4.59375,-4.6875 4.64062,0 4.64062,4.6875 0,7.40625 -0.23437,16.96875 -0.23438,9.51562 -0.23438,16.92187 z m 46.03125,0.75 q -2.57812,0 -3.60937,-1.73437 -0.70313,-1.21875 -1.21875,-5.0625 -3.51563,0.89062 -10.82813,3.28125 -7.54687,3 -7.59375,7.40625 1.40625,0.51562 2.76563,0.75 10.78125,1.92187 16.03125,5.29687 7.64062,4.92188 7.64062,14.25 0,7.64063 -6.60937,11.53125 -5.48438,3.1875 -13.875,3.1875 -6.14063,0 -11.71875,-2.0625 -7.21875,-2.625 -7.21875,-7.3125 0,-1.875 1.45312,-3.28125 1.5,-1.40625 3.375,-1.40625 1.45313,0 3.75,2.25 1.125,1.07813 5.0625,1.78125 3.14063,0.5625 5.29688,0.5625 3.9375,0 6.9375,-0.9375 4.35937,-1.35937 4.35937,-4.3125 0,-6.375 -8.90625,-8.625 l -4.875,-1.07812 q -6.23437,-1.35938 -8.85937,-3.1875 -3.79688,-2.625 -3.79688,-7.92188 0,-9.79687 9.23438,-13.96875 2.8125,-1.26562 9,-3 6.1875,-1.78125 8.85937,-3 1.92188,-0.84375 4.17188,-0.84375 2.01562,0 3.28125,1.3125 1.3125,1.3125 1.3125,3.42188 0,1.35937 0.5625,3.98437 0.60937,2.625 0.60937,3.98438 0,2.10937 -1.3125,3.42187 -1.26562,1.3125 -3.28125,1.3125 z"
       id="path2" /></g></g></svg>
