<?xml version="1.0" encoding="UTF-8" standalone="no"?>
<svg
   width="456"
   height="456"
   viewBox="0 0 456 456"
   version="1.1"
   xml:space="preserve"
   style="clip-rule:evenodd;fill-rule:evenodd;stroke-linejoin:round;stroke-miterlimit:2"
   id="svg4"
   sodipodi:docname="appiconfg.svg"
   inkscape:version="1.4.2 (2aeb623e1d, 2025-05-12)"
   xmlns:inkscape="http://www.inkscape.org/namespaces/inkscape"
   xmlns:sodipodi="http://sodipodi.sourceforge.net/DTD/sodipodi-0.dtd"
   xmlns="http://www.w3.org/2000/svg"
   xmlns:svg="http://www.w3.org/2000/svg"><defs
   id="defs4"><rect
     x="14.196762"
     y="13.628892"
     width="434.42093"
     height="434.9888"
     id="rect5" /></defs><sodipodi:namedview
   id="namedview4"
   pagecolor="#ffffff"
   bordercolor="#000000"
   borderopacity="0.25"
   inkscape:showpageshadow="2"
   inkscape:pageopacity="0.0"
   inkscape:pagecheckerboard="0"
   inkscape:deskcolor="#d1d1d1"
   inkscape:zoom="1.7609649"
   inkscape:cx="227.43213"
   inkscape:cy="226.86426"
   inkscape:window-width="1920"
   inkscape:window-height="1011"
   inkscape:window-x="0"
   inkscape:window-y="32"
   inkscape:window-maximized="1"
   inkscape:current-layer="svg4"><inkscape:page
     x="0"
     y="0"
     width="456"
     height="456"
     id="page2"
     margin="0"
     bleed="0" /></sodipodi:namedview>
    
    
    
    
<g
   id="text5"
   style="font-size:96px;white-space:pre;fill:#ffffff"
   transform="translate(-1.135741,32.936488)"
   aria-label="Code&#10;2&#10;Barcode"><path
     style="font-family:'Comic Sans MS';-inkscape-font-specification:'Comic Sans MS';text-align:center;text-anchor:middle;fill:#1a1a1a"
     d="m 174.50098,45.972656 q -3,0 -4.5,-3.515625 -1.3125,-3 -2.4375,-3.65625 -0.98438,-0.515625 -4.875,-0.515625 -6.79688,0 -15.09375,10.40625 -11.25,13.96875 -11.25,26.484375 0,6.046875 3.89062,10.40625 3.98438,4.5 9.60938,4.5 4.82812,0 9.70312,-2.484375 2.71875,-1.40625 8.34375,-5.53125 2.67188,-1.96875 4.03125,-1.96875 2.01563,0 3.375,1.546875 1.35938,1.5 1.35938,3.375 0,2.109375 -1.78125,3.703125 -12.375,10.96875 -25.03125,10.96875 -9.70313,0 -16.40625,-7.453125 -6.46875,-7.21875 -6.46875,-17.0625 0,-15.890625 13.3125,-32.578125 11.10937,-13.921875 22.40625,-13.921875 2.29687,0 4.125,0.234375 1.82812,0.1875 3.23437,0.65625 1.64063,-2.390625 4.26563,-2.390625 3.23437,0 4.07812,4.265625 0.75,3.796875 0.75,9.328125 0,1.921875 -1.03125,3.375 -1.26562,1.828125 -3.60937,1.828125 z m 30.1875,55.359374 q -7.875,0 -13.54688,-5.812499 -6.32812,-6.46875 -6.65625,-17.390625 -0.28125,-10.59375 5.34375,-18.65625 6.5625,-9.515625 18.28125,-9.515625 9.375,0 14.20313,8.578125 3.84375,6.9375 3.70312,16.6875 -0.14062,10.40625 -5.4375,17.765625 -6,8.343749 -15.89062,8.343749 z m 2.8125,-41.859374 q -6.89063,-0.04687 -10.73438,6.5625 -3.04687,5.296875 -3.04687,12.09375 0,6.796875 3.70312,10.59375 3.09375,3.140625 7.26563,3.140625 4.875,0 8.39062,-3.5625 3.98438,-3.9375 4.21875,-10.640625 0.65625,-18.140625 -9.79687,-18.1875 z m 73.26562,-2.296875 q -0.5625,6.890625 -0.5625,13.78125 0,15.609375 1.45313,23.578125 0.0937,0.65625 0.0937,1.078125 0,1.875 -1.3125,3.09375 -1.3125,1.21875 -3.04688,1.21875 -2.90625,0 -4.26562,-4.21875 -3.375,2.484375 -7.03125,3.75 -3.60938,1.265629 -7.54688,1.265629 -9.70312,0 -16.07812,-6.468754 -6.5625,-6.609375 -6.5625,-16.96875 0,-12.515625 6.60937,-20.0625 6.65625,-7.546875 17.25,-7.546875 5.4375,0 8.39063,1.6875 l 4.40625,3.234375 q 0.65625,-19.734375 1.54687,-26.578125 0.60938,-4.171875 4.26563,-4.171875 4.26562,0 4.26562,4.546875 0,6.515625 -1.875,28.78125 z m -20.8125,1.21875 q -7.875,0 -11.8125,4.6875 -3.9375,4.640625 -3.9375,14.015625 0,6.046875 4.26563,10.40625 4.3125,4.359375 10.07812,4.359375 3.9375,0 6.65625,-1.453125 1.59375,-0.84375 5.20313,-3.890625 0.70312,-0.609375 1.35937,-1.453125 l -0.14062,-8.109375 0.0469,-5.4375 0.0937,-5.53125 q -1.78125,-3.796875 -4.73437,-5.671875 -2.95313,-1.921875 -7.07813,-1.921875 z m 55.92188,42.328129 q -10.59375,0 -17.15625,-5.296879 -7.17188,-5.859375 -7.17188,-16.40625 0,-12.1875 5.90625,-20.4375 6.42188,-9 17.15625,-9 7.78125,0 12.70313,2.625 6.04687,3.234375 6.04687,9.9375 0,4.6875 -5.29687,8.53125 -2.34375,1.6875 -9.9375,5.25 l -17.90625,8.484375 q 2.625,3.890625 6.51562,5.859375 3.9375,1.96875 9.14063,1.96875 3.23437,0 7.59375,-1.21875 5.53125,-1.546875 7.125,-4.03125 1.59375,-2.53125 3.42187,-2.53125 1.64063,0 2.90625,1.265625 1.3125,1.21875 1.3125,2.859375 0,5.203125 -8.39062,8.953125 -7.17188,3.187504 -13.96875,3.187504 z m -1.26563,-42.703129 q -5.71875,0 -9.51562,4.453125 -3.79688,4.40625 -5.67188,13.3125 l 14.39063,-6.84375 q 8.48437,-4.125 12.09375,-7.171875 -4.03125,-3.75 -11.29688,-3.75 z"
     id="path13" /><path
     style="font-family:'Comic Sans MS';-inkscape-font-specification:'Comic Sans MS';text-align:center;text-anchor:middle;fill:#1a1a1a"
     d="m 249.36035,221.2406 q -1.17187,0 -3.32812,-0.70312 -2.10938,-0.75 -3.23438,-0.75 -2.39062,0 -7.17187,0.28125 -4.78125,0.28125 -7.21875,0.28125 -1.82813,0 -5.4375,0.46875 -3.5625,0.46875 -5.39063,0.46875 -0.51562,0 -1.5,-0.1875 -0.98437,-0.1875 -1.5,-0.1875 -3.23437,0 -4.21875,-3.14063 -0.5625,-1.64062 -0.5625,-5.625 0,-10.92187 5.95313,-17.57812 2.71875,-3.04688 14.67187,-11.25 6.70313,-4.59375 8.95313,-7.17188 4.03125,-4.5 4.03125,-10.54687 0,-3 -3.89063,-5.34375 -3.42187,-2.10938 -6.70312,-2.10938 -4.3125,0 -8.20313,2.48438 l -6.70312,5.25 q -2.01563,1.59375 -3.23438,1.59375 -4.82812,0 -4.82812,-3.84375 0,-2.20313 1.78125,-3.79688 5.48437,-5.15625 9.51562,-7.45312 5.67188,-3.23438 11.67188,-3.23438 7.59375,0 13.54687,4.125 6.65625,4.64063 6.65625,11.90625 0,4.78125 -1.35937,8.8125 -1.35938,4.03125 -4.125,7.35938 -3.51563,4.21875 -11.90625,9.42187 -8.8125,5.53125 -11.57813,8.39063 -5.20312,5.39062 -5.10937,13.07812 l 9.65625,-0.89062 q 9.9375,-0.5625 14.20312,-0.5625 3.5625,0 6.75,1.21875 4.21875,1.64062 4.21875,4.54687 0,1.82813 -1.26562,3.28125 -1.26563,1.40625 -3.14063,1.40625 z"
     id="path14" /><path
     style="font-family:'Comic Sans MS';-inkscape-font-specification:'Comic Sans MS';text-align:center;text-anchor:middle;fill:#1a1a1a"
     d="m 90.665039,341.85229 q -10.546875,4.125 -26.953125,4.125 -2.015625,0 -3.84375,-1.92187 -1.78125,-1.875 -1.78125,-3.89063 v -13.64062 q 0,-6.70313 0.84375,-19.125 0.9375,-13.40625 1.03125,-19.40625 -0.04687,-4.3125 0.515625,-12.84375 0.328125,-2.34375 1.546875,-3.09375 6.375,-1.96875 14.484375,-1.96875 8.25,0 15.84375,5.625 8.765621,6.46875 8.765621,15.98437 0,12.04688 -9.374996,18.98438 7.03125,3 10.499996,6.65625 3.51563,3.65625 3.51563,7.96875 0,5.67187 -6.140626,10.96875 -4.265625,3.75 -8.953125,5.57812 z m -14.15625,-62.20312 q -5.109375,0 -7.171875,0.32812 l -0.09375,8.20313 -0.9375,18.14062 q 6.65625,0.5625 7.125,0.51563 7.078125,-0.5625 11.578125,-4.40625 4.828125,-4.17188 4.828125,-10.73438 0,-4.45312 -4.921875,-8.25 -4.921875,-3.79687 -10.40625,-3.79687 z m 5.25,37.54687 -4.96875,-0.79687 q -0.609375,0 -1.875,0.0937 -1.21875,0.0469 -1.875,0.0469 -2.53125,0 -5.390625,-0.42187 -0.28125,5.90625 -0.28125,10.54687 v 9.70313 q 12.28125,-0.42188 20.015625,-3.46875 3.28125,-1.26563 6.28125,-3.9375 2.859375,-2.4375 2.859375,-3.65625 0,-2.20313 -6,-4.96875 -4.5,-2.10938 -8.765625,-3.14063 z m 71.015621,29.625 q -0.89062,0 -3.23437,-2.0625 -2.10938,-1.92187 -3.14063,-3.42187 -4.5,2.4375 -7.92187,3.65625 -3.42188,1.26562 -5.71875,1.26562 -10.96875,0 -15.98438,-6.1875 -4.73437,-5.8125 -4.73437,-17.8125 0,-11.34375 7.78125,-19.40625 7.82812,-8.0625 18.65625,-8.0625 4.07812,0 9.14062,2.10938 6.375,2.625 6.375,6.32812 0,1.26563 -0.9375,2.25 -0.46875,1.78125 -0.75,5.85938 -0.23437,4.07812 -0.28125,10.45312 -0.0469,5.8125 0.79688,9.1875 0.46875,2.0625 2.95312,8.25 0.32813,0.84375 1.07813,2.48438 l 0.28125,0.79687 q 0,1.875 -1.3125,3.09375 -1.3125,1.21875 -3.04688,1.21875 z m -9.75,-32.57812 q 0,-2.01563 0.23438,-4.35938 0.28125,-2.39062 0.79687,-5.0625 -1.73437,-0.89062 -3,-1.3125 -1.21875,-0.42187 -1.96875,-0.42187 -7.26562,0 -12.5625,5.95312 -5.25,5.90625 -5.25,13.64063 0,7.6875 2.71875,11.53125 2.71875,3.84375 8.15625,3.84375 4.5,0 7.64063,-1.64063 1.6875,-0.89062 4.73437,-3.5625 -1.5,-12.42187 -1.5,-18.60937 z m 58.73438,-5.15625 q -0.32813,5.85937 -4.6875,5.85937 -4.03125,0 -4.03125,-4.64062 0,-0.89063 -0.14063,-3.28125 l -0.14062,-3.9375 q -7.40625,0.89062 -11.85938,4.17187 -4.17187,3.04688 -6.9375,9.1875 l 0.0937,25.6875 q 0,4.73438 -4.64062,4.73438 -4.125,0 -4.125,-4.73438 v -32.90625 q 0,-1.54687 0.0937,-4.64062 0.14062,-3.09375 0.14062,-4.64063 0,-4.73437 4.125,-4.73437 4.59375,0 4.64063,7.78125 9,-8.67188 19.96875,-8.67188 3.79687,0 5.67187,2.85938 1.875,2.85937 1.875,8.625 0,2.4375 -0.0469,3.28125 z m 30.84375,37.59375 q -9.60938,0 -16.03125,-5.8125 -6.75,-6.09375 -6.75,-16.07813 0,-9.51562 6.32812,-19.64062 7.03125,-11.25 15.84375,-11.25 4.59375,0 10.26563,2.15625 7.17187,2.76562 7.17187,6.75 0,1.78125 -1.17187,3.1875 -1.17188,1.35937 -2.90625,1.35937 -1.35938,0 -2.39063,-0.79687 -0.98437,-0.84375 -1.92187,-1.64063 -2.76563,-2.20312 -9.04688,-2.20312 -4.78125,0 -9.46875,8.53125 -4.26562,7.82812 -4.26562,13.54687 0,6.1875 4.21875,9.75 3.9375,3.32813 10.125,3.32813 2.8125,0 6,-1.5 l 5.4375,-2.90625 q 1.40625,-0.75 2.01562,-0.75 1.73438,0 3,1.40625 1.26563,1.35937 1.26563,3.14062 0,3.42188 -7.21875,6.60938 -6.32813,2.8125 -10.5,2.8125 z m 45.70312,-0.1875 q -7.875,0 -13.54687,-5.8125 -6.32813,-6.46875 -6.65625,-17.39063 -0.28125,-10.59375 5.34375,-18.65625 6.5625,-9.51562 18.28125,-9.51562 9.375,0 14.20312,8.57812 3.84375,6.9375 3.70313,16.6875 -0.14063,10.40625 -5.4375,17.76563 -6,8.34375 -15.89063,8.34375 z m 2.8125,-41.85938 q -6.89062,-0.0469 -10.73437,6.5625 -3.04688,5.29688 -3.04688,12.09375 0,6.79688 3.70313,10.59375 3.09375,3.14063 7.26562,3.14063 4.875,0 8.39063,-3.5625 3.98437,-3.9375 4.21875,-10.64063 0.65625,-18.14062 -9.79688,-18.1875 z m 73.26563,-2.29687 q -0.5625,6.89062 -0.5625,13.78125 0,15.60937 1.45312,23.57812 0.0937,0.65625 0.0937,1.07813 0,1.875 -1.3125,3.09375 -1.3125,1.21875 -3.04687,1.21875 -2.90625,0 -4.26563,-4.21875 -3.375,2.48437 -7.03125,3.75 -3.60937,1.26562 -7.54687,1.26562 -9.70313,0 -16.07813,-6.46875 -6.5625,-6.60937 -6.5625,-16.96875 0,-12.51562 6.60938,-20.0625 6.65625,-7.54687 17.25,-7.54687 5.4375,0 8.39062,1.6875 l 4.40625,3.23437 q 0.65625,-19.73437 1.54688,-26.57812 0.60937,-4.17188 4.26562,-4.17188 4.26563,0 4.26563,4.54688 0,6.51562 -1.875,28.78125 z m -20.8125,1.21875 q -7.875,0 -11.8125,4.6875 -3.9375,4.64062 -3.9375,14.01562 0,6.04688 4.26562,10.40625 4.3125,4.35938 10.07813,4.35938 3.9375,0 6.65625,-1.45313 1.59375,-0.84375 5.20312,-3.89062 0.70313,-0.60938 1.35938,-1.45313 l -0.14063,-8.10937 0.0469,-5.4375 0.0937,-5.53125 q -1.78125,-3.79688 -4.73438,-5.67188 -2.95312,-1.92187 -7.07812,-1.92187 z m 55.92187,42.32812 q -10.59375,0 -17.15625,-5.29687 -7.17187,-5.85938 -7.17187,-16.40625 0,-12.1875 5.90625,-20.4375 6.42187,-9 17.15625,-9 7.78125,0 12.70312,2.625 6.04688,3.23437 6.04688,9.9375 0,4.6875 -5.29688,8.53125 -2.34375,1.6875 -9.9375,5.25 l -17.90625,8.48437 q 2.625,3.89063 6.51563,5.85938 3.9375,1.96875 9.14062,1.96875 3.23438,0 7.59375,-1.21875 5.53125,-1.54688 7.125,-4.03125 1.59375,-2.53125 3.42188,-2.53125 1.64062,0 2.90625,1.26562 1.3125,1.21875 1.3125,2.85938 0,5.20312 -8.39063,8.95312 -7.17187,3.1875 -13.96875,3.1875 z m -1.26562,-42.70312 q -5.71875,0 -9.51563,4.45312 -3.79687,4.40625 -5.67187,13.3125 l 14.39062,-6.84375 q 8.48438,-4.125 12.09375,-7.17187 -4.03125,-3.75 -11.29687,-3.75 z"
     id="path15" /></g></svg>
